<!-- Shape: animals_farm_rooster_mLmBrVO -->
<svg xmlns:xlink="http://www.w3.org/1999/xlink" fill="none" width="129.518" xmlns="http://www.w3.org/2000/svg" style="-webkit-print-color-adjust:exact" id="screenshot-eb6635ed-9e52-806d-8002-f37694e6e9be" version="1.1" viewBox="-382 855 129.518 155.888" height="155.888">
  <g id="shape-eb6635ed-9e52-806d-8002-f37694e6e9be" style="fill:#000000" width="129.51764mm" height="155.88818mm" rx="0" ry="0">
    <g id="shape-eb6635ed-9e52-806d-8002-f37694e84627">
      <g class="fills" id="fills-eb6635ed-9e52-806d-8002-f37694e84627">
        <path rx="0" ry="0" style="fill:#ffffff" d="M-348.434,857.205C-349.490,857.216,-350.559,857.438,-351.565,857.989C-356.164,860.510,-357.374,870.095,-357.374,870.095C-357.374,870.095,-364.510,877.426,-366.848,882.659C-372.895,882.954,-379.685,883.867,-380.390,886.478C-379.487,889.949,-372.879,890.324,-366.490,889.988C-365.023,892.963,-362.630,895.241,-362.630,895.241C-362.630,895.241,-368.959,900.501,-371.967,905.138C-374.976,909.775,-375.529,912.732,-373.835,917.275C-372.140,921.819,-363.288,914.629,-363.288,914.629C-363.288,914.629,-364.014,922.659,-362.804,933.925C-361.593,945.191,-360.106,941.611,-360.106,941.611C-360.106,941.611,-358.274,957.484,-340.499,965.108C-322.725,972.733,-306.126,966.322,-299.660,963.116C-293.193,959.911,-295.234,943.323,-295.234,943.323C-295.234,943.323,-271.477,920.231,-263.385,911.175C-255.293,902.119,-252.977,900.408,-255.604,898.914C-258.233,897.420,-264.595,899.909,-268.883,904.422C-273.171,908.934,-286.727,924.869,-284.098,918.800C-281.471,912.731,-273.483,900.283,-268.918,895.148C-264.353,890.013,-257.160,886.807,-256.261,883.820C-255.362,880.832,-265.564,880.023,-271.374,883.820C-277.183,887.617,-286.035,898.354,-281.574,890.636C-277.113,882.918,-267.119,873.021,-262.382,870.904C-257.645,868.788,-258.025,863.965,-267.154,865.303C-276.283,866.641,-287.142,871.496,-295.614,891.569C-304.086,911.642,-301.181,933.894,-301.181,933.894C-301.181,933.894,-304.190,932.711,-308.513,928.790C-312.835,924.869,-325.768,924.464,-325.768,924.464L-344.510,897.015C-344.510,897.015,-340.257,893.499,-338.355,888.301C-336.453,883.104,-337.629,876.351,-337.629,876.351L-333.825,871.496C-333.825,871.496,-331.024,862.626,-331.785,859.296C-332.545,855.966,-341.053,859.825,-341.053,859.825C-341.053,859.825,-344.662,857.167,-348.434,857.205ZZ">
        </path>
      </g>
    </g>
    <g id="shape-eb6635ed-9e52-806d-8002-f37694ebd1fa">
      <g class="fills" id="fills-eb6635ed-9e52-806d-8002-f37694ebd1fa">
        <path rx="0" ry="0" style="fill:#030303" d="M-327.673,1009.474C-327.673,1008.646,-325.572,1006.455,-323.004,1004.605L-318.334,1001.241L-318.898,993.041C-319.207,988.530,-319.464,981.957,-319.467,978.434C-319.474,972.318,-319.587,972.027,-321.987,972.027C-324.365,972.027,-324.478,972.293,-324.068,976.896C-322.528,994.175,-322.571,997.357,-324.366,998.910C-326.701,1000.928,-335.912,1003.150,-337.084,1001.978C-338.781,1000.281,-336.614,997.458,-332.137,995.540L-327.673,993.626L-327.673,982.522L-327.673,971.419L-334.146,970.310C-342.658,968.852,-351.673,964.343,-355.863,959.448C-359.005,955.778,-361.500,949.173,-361.500,944.529C-361.500,943.402,-362.388,942.308,-363.550,942.004C-365.444,941.509,-365.600,940.606,-365.600,930.097C-365.600,923.842,-365.761,918.725,-365.960,918.725C-366.157,918.725,-367.779,919.234,-369.564,919.857C-376.467,922.263,-380.079,915.939,-376.323,908.024C-374.200,903.550,-368.277,897.949,-366.128,898.385C-364.586,898.697,-364.642,899.025,-366.633,901.300C-369.395,904.457,-372.775,910.921,-372.775,913.047C-372.775,913.915,-372.166,914.625,-371.422,914.625C-369.374,914.625,-361.657,907.654,-359.862,904.182C-358.398,901.351,-358.419,901.013,-360.145,899.705C-362.458,898.516,-364.035,897.156,-365.087,895.149C-366.473,892.470,-367.235,892.074,-371.007,892.070C-376.318,892.063,-382.000,888.869,-382.000,885.887C-382.000,883.544,-376.777,880.799,-372.322,880.799C-370.533,880.799,-369.293,879.910,-368.241,877.876C-367.409,876.268,-365.092,873.515,-363.089,871.757C-360.543,869.521,-359.450,867.697,-359.450,865.683C-359.450,862.057,-357.122,858.687,-353.227,856.673C-349.200,854.590,-343.068,854.418,-341.623,856.347C-340.827,857.410,-339.177,857.736,-336.111,857.434C-330.817,856.914,-328.302,858.582,-329.170,862.038C-329.578,863.664,-329.267,864.637,-328.211,865.043C-325.264,866.173,-326.587,869.382,-331.345,872.656C-335.547,875.547,-335.958,876.174,-335.240,878.600C-333.747,883.655,-334.452,887.829,-337.673,893.012L-340.862,898.140L-338.310,901.902C-336.905,903.970,-335.017,906.403,-334.112,907.307C-331.952,909.467,-325.623,919.383,-325.623,920.607C-325.623,921.132,-322.724,921.746,-319.182,921.972C-314.050,922.298,-311.757,923.045,-307.906,925.644L-303.073,928.906L-303.043,920.997C-302.981,905.663,-299.954,890.756,-294.882,880.815C-291.408,874.005,-285.935,868.784,-278.235,864.931C-269.005,860.314,-262.300,859.977,-258.346,863.931C-256.807,865.470,-255.985,867.186,-256.342,868.115C-256.675,868.982,-256.947,870.042,-256.947,870.471C-256.947,870.900,-258.653,872.130,-260.738,873.206C-264.540,875.166,-266.096,876.285,-271.810,881.165L-274.885,883.790L-268.735,881.294C-259.092,877.380,-253.872,878.148,-253.872,883.483C-253.872,887.507,-255.052,889.043,-260.112,891.607C-262.840,892.990,-266.782,895.620,-268.872,897.454C-272.754,900.859,-280.065,911.325,-279.180,912.210C-278.910,912.480,-276.564,909.938,-273.966,906.561C-270.552,902.126,-267.682,899.659,-263.620,897.672C-254.812,893.362,-250.816,895.345,-253.127,902.876C-254.396,907.009,-260.057,913.209,-272.672,924.282C-277.092,928.162,-283.178,934.618,-286.197,938.628C-291.200,945.276,-291.682,946.385,-291.644,951.182C-291.599,957.404,-293.854,962.687,-297.809,965.612C-300.789,967.815,-309.144,971.002,-311.938,971.002C-313.363,971.002,-313.478,972.670,-312.906,985.097C-312.159,1001.346,-312.375,1002.031,-319.968,1007.429C-325.339,1011.247,-327.675,1011.867,-327.673,1009.474ZZM-309.851,963.674C-301.739,962.045,-297.947,958.436,-297.947,952.342C-297.947,944.484,-304.695,933.806,-312.810,928.822C-315.045,927.450,-317.896,926.932,-323.238,926.929C-329.589,926.929,-331.006,927.275,-333.637,929.488C-335.311,930.898,-337.792,932.051,-339.147,932.051C-341.033,932.051,-341.917,932.892,-342.908,935.635C-344.380,939.707,-347.703,941.124,-351.287,939.206C-353.287,938.136,-353.844,938.338,-355.861,940.867C-358.038,943.598,-358.081,943.972,-356.671,948.108C-355.853,950.507,-353.751,953.871,-351.999,955.584C-344.729,962.691,-324.393,966.595,-309.851,963.674ZZM-326.000,956.540C-332.421,955.032,-336.887,952.474,-338.482,949.389C-339.302,947.802,-339.974,946.019,-339.974,945.427C-339.974,943.502,-338.302,944.291,-336.922,946.868C-335.478,949.568,-328.380,952.552,-323.403,952.552C-321.026,952.552,-320.565,952.148,-320.766,950.245C-321.021,947.840,-320.619,947.757,-315.065,949.061C-312.376,949.693,-312.236,949.566,-312.866,947.053C-313.357,945.099,-313.093,944.199,-311.894,943.739C-310.988,943.391,-310.248,942.464,-310.248,941.679C-310.248,940.836,-309.189,940.251,-307.663,940.251C-304.146,940.251,-302.048,944.554,-304.291,947.166C-305.140,948.155,-306.117,949.757,-306.460,950.727C-306.803,951.697,-308.373,952.805,-309.947,953.190C-311.522,953.574,-313.910,954.741,-315.255,955.783C-317.903,957.835,-319.890,957.975,-326.000,956.540ZZM-358.321,937.112C-357.913,935.738,-357.299,933.345,-356.957,931.794C-356.143,928.103,-353.867,928.212,-351.598,932.051C-348.657,937.030,-346.124,935.596,-346.124,928.952C-346.124,925.640,-344.462,924.078,-342.755,925.785C-340.610,927.929,-338.078,927.082,-337.735,924.107C-337.479,921.872,-336.933,921.338,-335.104,921.532C-333.836,921.666,-332.798,921.577,-332.798,921.334C-332.798,920.463,-337.371,913.018,-340.068,909.500C-341.580,907.527,-343.273,904.528,-343.830,902.837C-344.439,900.989,-345.405,899.925,-346.252,900.171C-347.028,900.396,-348.979,900.802,-350.588,901.072C-352.759,901.437,-353.907,902.505,-355.038,905.210C-355.876,907.216,-357.673,910.314,-359.030,912.094C-361.328,915.107,-361.500,916.201,-361.500,927.876C-361.500,937.105,-361.178,940.315,-360.282,940.016C-359.613,939.793,-358.731,938.486,-358.321,937.112ZZM-270.136,915.026C-261.986,908.109,-255.571,900.275,-258.056,900.275C-260.832,900.275,-265.517,904.165,-275.049,914.384C-284.584,924.608,-289.733,931.267,-289.743,933.389C-289.743,933.843,-287.324,931.587,-284.365,928.375C-281.405,925.164,-275.002,919.157,-270.136,915.026ZZM-294.376,913.088C-292.134,903.955,-289.319,895.301,-287.445,891.775C-284.053,885.391,-275.635,876.943,-267.265,871.519C-264.408,869.668,-262.071,867.769,-262.071,867.301C-262.071,865.423,-270.039,866.604,-275.337,869.267C-283.446,873.344,-288.197,878.349,-292.218,887.052C-296.995,897.390,-301.202,919.301,-300.163,928.432C-299.637,933.060,-298.614,930.347,-294.376,913.088ZZM-283.434,911.876C-276.682,899.152,-273.200,894.829,-265.781,889.950C-258.596,885.227,-257.162,883.200,-261.814,884.346C-266.932,885.607,-273.490,889.405,-276.528,892.865C-281.453,898.474,-290.911,919.392,-290.731,924.276C-290.684,925.467,-290.272,924.761,-283.434,911.876ZZM-347.315,894.209C-342.831,891.922,-339.636,886.683,-340.136,882.439C-340.658,878.013,-346.895,873.344,-352.288,873.344C-357.109,873.344,-360.507,874.874,-362.393,877.894C-363.515,879.691,-363.398,880.315,-361.576,882.255C-358.885,885.120,-358.851,888.608,-361.499,890.262C-364.346,892.040,-364.075,892.970,-360.219,894.646C-355.617,896.646,-351.841,896.518,-347.315,894.209ZZM-357.242,882.596C-359.860,879.978,-357.432,876.317,-354.233,878.029C-353.192,878.586,-353.069,879.565,-353.069,880.371C-353.069,882.521,-355.775,884.063,-357.242,882.596ZZM-349.802,882.471C-350.571,880.466,-349.523,878.749,-347.529,878.749C-346.523,878.749,-345.282,879.587,-345.496,881.034C-345.894,883.737,-348.967,884.646,-349.802,882.471ZZM-364.321,884.975C-363.256,883.844,-364.252,883.717,-370.140,884.233C-379.847,885.084,-379.804,887.314,-372.521,886.752C-368.598,886.449,-365.051,885.750,-364.321,884.975ZZM-337.155,868.275C-339.767,867.204,-339.354,865.124,-336.130,863.125C-333.729,861.637,-333.615,861.379,-335.361,861.387C-336.488,861.394,-338.564,862.055,-339.974,862.861C-343.646,864.960,-346.124,864.778,-346.124,862.408C-346.124,861.314,-346.529,860.169,-347.023,859.863C-348.547,858.921,-354.817,863.823,-355.164,866.227C-355.453,868.232,-355.033,868.499,-351.577,868.504C-349.292,868.504,-346.011,869.508,-343.698,870.908L-339.734,873.307L-337.548,871.159C-335.529,869.175,-335.498,868.954,-337.155,868.275ZZ">
        </path>
      </g>
    </g>
  </g>
</svg>