<!-- Shape: search -->
<svg xmlns:xlink="http://www.w3.org/1999/xlink" fill="none" width="25" xmlns="http://www.w3.org/2000/svg" style="-webkit-print-color-adjust:exact" id="screenshot-16ccb42e-d6ae-804b-8002-f31b29f0c8e1" version="1.1" viewBox="3183.5 418.5 25 25" height="25">
  <g id="shape-16ccb42e-d6ae-804b-8002-f31b29f0c8e1" style="fill:#000000" rx="0" ry="0">
    <g id="shape-16ccb42e-d6ae-804b-8002-f31b29f0c8f0" style="fill:#000000" rx="0" ry="0">
      <g id="shape-16ccb42e-d6ae-804b-8002-f31b29f0c8f1">
        <g class="fills" id="fills-16ccb42e-d6ae-804b-8002-f31b29f0c8f1">
          <path rx="0" ry="0" d="M3204.030,439.790C3204.490,440.250,3205.200,439.540,3204.740,439.090L3200.990,435.330C3203.769,432.168,3203.537,427.370,3200.466,424.491C3197.395,421.611,3192.593,421.689,3189.616,424.666C3186.639,427.643,3186.561,432.445,3189.441,435.516C3192.320,438.587,3197.118,438.819,3200.280,436.040ZM3188.110,430.020C3188.110,426.176,3191.226,423.060,3195.070,423.060C3198.914,423.060,3202.030,426.176,3202.030,430.020C3202.030,433.864,3198.914,436.980,3195.070,436.980C3191.229,436.974,3188.116,433.861,3188.110,430.020ZZ">
          </path>
        </g>
        <g id="strokes-16ccb42e-d6ae-804b-8002-f31b29f0c8f1" class="strokes">
          <g class="stroke-shape">
            <path rx="0" ry="0" style="fill:none;fill-opacity:none;stroke-width:1;stroke:#000000;stroke-opacity:1;stroke-dasharray:" d="M3204.030,439.790C3204.490,440.250,3205.200,439.540,3204.740,439.090L3200.990,435.330C3203.769,432.168,3203.537,427.370,3200.466,424.491C3197.395,421.611,3192.593,421.689,3189.616,424.666C3186.639,427.643,3186.561,432.445,3189.441,435.516C3192.320,438.587,3197.118,438.819,3200.280,436.040ZM3188.110,430.020C3188.110,426.176,3191.226,423.060,3195.070,423.060C3198.914,423.060,3202.030,426.176,3202.030,430.020C3202.030,433.864,3198.914,436.980,3195.070,436.980C3191.229,436.974,3188.116,433.861,3188.110,430.020ZZ">
            </path>
          </g>
        </g>
      </g>
    </g>
  </g>
</svg>