<!-- Shape: Company=Medium -->
<svg xmlns:xlink="http://www.w3.org/1999/xlink" fill="none" width="145" xmlns="http://www.w3.org/2000/svg" style="-webkit-print-color-adjust:exact" id="screenshot-eb6635ed-9e52-806d-8002-f3281d74e1c4" version="1.1" viewBox="2295 620.5 145 48" height="48">
  <g id="shape-eb6635ed-9e52-806d-8002-f3281d74e1c4" style="fill:#000000" width="145" height="48" rx="0" ry="0">
    <g id="shape-eb6635ed-9e52-806d-8002-f3281d74e1d7" style="fill:#000000" clip-path="url(#rumext-id-4745-clip0_1003_538)" rx="0" ry="0">
      <defs>
        <clipPath id="rumext-id-4745-clip0_1003_538" class="svg-def" transform="matrix(1.000000, 0.000000, 0.000000, 1.000000, 2295.000000, 620.500000)">
          <rect width="145" height="48" fill="white">
          </rect>
        </clipPath>
      </defs>
      <g id="shape-eb6635ed-9e52-806d-8002-f3281d74e1d9">
        <g class="fills" id="fills-eb6635ed-9e52-806d-8002-f3281d74e1d9">
          <path rx="0" ry="0" style="fill:#000000" d="M2305.831,633.241C2311.800,633.241,2316.662,638.102,2316.662,644.120C2316.662,650.137,2311.800,654.998,2305.831,654.998C2299.862,654.998,2295.000,650.185,2295.000,644.120C2295.000,638.054,2299.862,633.241,2305.831,633.241ZZM2390.744,633.000L2390.744,652.062C2390.744,653.506,2391.322,653.891,2392.429,654.180L2392.477,654.421L2386.364,654.421L2386.364,652.062C2385.641,653.795,2384.149,654.854,2382.224,654.854C2378.950,654.854,2376.784,651.870,2376.784,647.441C2376.784,644.938,2377.506,642.820,2378.854,641.231C2380.154,639.691,2381.935,638.873,2383.909,638.873C2384.871,638.873,2385.690,639.065,2386.364,639.498L2386.364,636.899C2386.364,636.321,2386.219,635.936,2385.930,635.648C2385.545,635.311,2384.920,635.166,2383.957,635.262L2383.909,635.262L2383.909,635.022L2390.744,633.000ZZM2413.946,638.921L2413.946,652.062C2413.946,653.506,2414.524,653.891,2415.631,654.180L2415.631,654.421L2409.517,654.421L2409.517,652.014C2408.795,653.747,2407.207,654.854,2405.426,654.854C2403.308,654.854,2401.960,653.891,2401.430,652.014L2401.334,651.533C2401.238,651.051,2401.190,650.570,2401.190,650.088L2401.190,643.061C2401.190,641.520,2400.853,641.039,2399.505,640.943L2399.457,640.943L2399.457,640.702L2405.570,638.921L2405.570,649.992C2405.570,651.629,2406.292,652.543,2407.640,652.543C2408.458,652.543,2409.132,652.110,2409.517,651.388L2409.517,643.061C2409.517,641.472,2409.229,640.991,2408.121,640.894L2408.073,640.894L2408.073,640.654L2413.946,638.921ZZM2369.804,638.873C2371.441,638.873,2373.030,639.450,2374.089,640.461C2375.292,641.617,2375.918,643.301,2375.966,645.516L2375.966,645.564L2366.772,645.564C2366.579,648.741,2368.553,651.340,2371.152,651.436C2373.030,651.581,2374.666,650.425,2375.581,648.548L2375.822,648.644C2375.292,652.158,2373.222,654.806,2369.612,654.806C2365.520,654.806,2363.210,651.388,2363.113,647.104L2363.113,645.997C2363.306,644.120,2363.884,642.435,2364.895,641.183C2365.520,640.413,2366.242,639.835,2367.109,639.450C2367.831,639.065,2368.890,638.873,2369.804,638.873ZL2369.804,638.873ZZM2433.489,638.921C2436.089,638.921,2437.677,640.557,2437.677,643.349L2437.677,652.303C2437.677,653.362,2438.159,653.891,2439.362,654.180L2439.410,654.180L2439.410,654.421L2433.249,654.421L2433.249,643.494C2433.249,641.761,2432.623,640.894,2431.323,640.894C2430.264,640.894,2429.735,641.665,2429.446,642.338C2429.494,642.675,2429.542,643.012,2429.542,643.349L2429.542,652.447C2429.542,653.554,2429.879,653.939,2430.842,654.180L2430.890,654.180L2430.890,654.421L2425.162,654.421L2425.162,643.494C2425.162,641.761,2424.488,640.894,2423.236,640.894C2422.225,640.894,2421.696,641.617,2421.455,642.194L2421.455,652.495C2421.455,653.602,2421.792,653.988,2422.755,654.228L2422.803,654.228L2422.803,654.469L2417.075,654.469L2417.075,643.012C2417.075,641.472,2416.690,640.991,2415.390,640.894L2415.342,640.894L2415.342,640.654L2421.455,638.969L2421.455,641.520C2422.081,639.884,2423.525,638.921,2425.354,638.921C2427.424,638.921,2428.868,639.932,2429.350,641.761C2429.975,640.028,2431.564,638.921,2433.489,638.921ZZM2345.688,633.963L2351.416,647.393L2357.145,633.963L2363.306,633.963L2363.258,634.203L2363.188,634.219C2362.126,634.461,2361.573,634.858,2361.573,636.177L2361.573,652.543C2361.669,653.602,2362.247,653.939,2363.258,654.180L2363.306,654.180L2363.306,654.421L2355.460,654.421L2355.460,654.180L2355.508,654.180C2356.519,653.939,2357.096,653.602,2357.193,652.543L2357.193,636.610L2349.635,654.373L2349.202,654.373L2341.837,637.092L2341.837,652.158C2341.837,653.506,2342.415,653.891,2343.522,654.132L2343.570,654.132L2343.570,654.373L2339.045,654.373L2339.045,654.132L2339.093,654.132C2340.200,653.891,2340.778,653.506,2340.778,652.158L2340.778,636.177C2340.778,634.829,2340.200,634.444,2339.093,634.203L2339.045,634.203L2339.045,633.963L2345.688,633.963ZZM2398.205,638.921L2398.205,652.062L2398.206,652.151C2398.230,653.522,2398.806,653.897,2399.890,654.180L2399.938,654.421L2393.825,654.421L2393.825,643.061C2393.825,641.520,2393.488,641.039,2392.140,640.943L2392.092,640.943L2392.092,640.702L2398.205,638.921ZZM2323.160,633.867C2326.096,633.867,2328.551,638.488,2328.551,644.120C2328.551,649.800,2326.145,654.373,2323.160,654.373C2320.175,654.373,2317.769,649.800,2317.769,644.120C2317.769,638.439,2320.175,633.867,2323.160,633.867ZZM2331.440,634.925C2332.547,634.925,2333.365,639.065,2333.365,644.120C2333.365,649.174,2332.499,653.314,2331.440,653.314C2330.391,653.314,2329.531,649.256,2329.514,644.271L2329.514,644.120C2329.514,639.065,2330.380,634.925,2331.440,634.925ZZM2384.631,639.739C2382.705,639.739,2381.502,642.290,2381.502,646.238C2381.502,648.115,2381.839,649.752,2382.416,650.859C2382.946,651.918,2383.716,652.495,2384.583,652.495C2385.449,652.495,2386.075,652.110,2386.364,651.388L2386.364,640.798C2386.027,640.124,2385.401,639.739,2384.631,639.739ZZM2369.756,639.787C2368.024,639.787,2367.013,641.857,2366.868,644.745L2366.868,644.793L2372.115,644.793C2372.211,642.531,2371.826,641.039,2371.104,640.317C2370.719,639.980,2370.286,639.787,2369.756,639.787ZZM2395.847,633.144C2397.242,633.144,2398.301,634.203,2398.301,635.599C2398.301,636.995,2397.242,638.054,2395.847,638.054C2394.450,638.054,2393.391,636.995,2393.391,635.599C2393.391,634.203,2394.450,633.144,2395.847,633.144ZZ">
          </path>
        </g>
      </g>
    </g>
  </g>
</svg>