<!-- Shape: Company=Square -->
<svg xmlns:xlink="http://www.w3.org/1999/xlink" fill="none" width="132" xmlns="http://www.w3.org/2000/svg" style="-webkit-print-color-adjust:exact" id="screenshot-eb6635ed-9e52-806d-8002-f3281d74e1c8" version="1.1" viewBox="3009.192 620.5 132 48" height="48">
  <g id="shape-eb6635ed-9e52-806d-8002-f3281d74e1c8" style="fill:#000000" width="132" height="48" rx="0" ry="0">
    <g id="shape-eb6635ed-9e52-806d-8002-f3281d756d74">
      <g class="fills" id="fills-eb6635ed-9e52-806d-8002-f3281d756d74">
        <path rx="0" ry="0" style="fill:#1a1a1a" d="M3036.897,627.500L3014.950,627.500C3011.908,627.500,3009.442,629.966,3009.442,633.008L3009.442,654.955C3009.442,657.998,3011.908,660.463,3014.950,660.463L3036.897,660.463C3039.940,660.463,3042.405,657.998,3042.405,654.955L3042.405,633.008C3042.405,629.966,3039.940,627.500,3036.897,627.500ZZM3036.413,652.731C3036.413,653.693,3035.634,654.471,3034.673,654.471L3017.174,654.471C3016.213,654.471,3015.434,653.693,3015.434,652.731L3015.434,635.232C3015.434,634.271,3016.213,633.492,3017.174,633.492L3034.673,633.492C3035.634,633.492,3036.413,634.271,3036.413,635.232L3036.413,652.731ZZM3022.427,648.456C3021.874,648.456,3021.430,648.009,3021.430,647.455L3021.430,640.469C3021.430,639.915,3021.874,639.464,3022.427,639.464L3029.424,639.464C3029.974,639.464,3030.421,639.912,3030.421,640.469L3030.421,647.452C3030.421,648.005,3029.974,648.453,3029.424,648.453L3022.427,648.456ZL3022.427,648.456ZZM3051.145,647.979L3054.744,647.979C3054.923,650.017,3056.305,651.608,3059.093,651.608C3061.582,651.608,3063.113,650.378,3063.113,648.519C3063.113,646.779,3061.913,646.000,3059.752,645.490L3056.962,644.890C3053.932,644.230,3051.652,642.282,3051.652,639.100C3051.652,635.590,3054.771,633.191,3058.821,633.191C3063.110,633.191,3065.870,635.441,3066.109,638.769L3062.629,638.769C3062.215,637.211,3060.922,636.283,3058.824,636.283C3056.604,636.283,3055.076,637.483,3055.076,639.014C3055.076,640.545,3056.395,641.473,3058.675,641.983L3061.436,642.583C3064.465,643.243,3066.533,645.072,3066.533,648.280C3066.533,652.360,3063.474,654.789,3059.096,654.789C3054.174,654.786,3051.447,652.118,3051.145,647.979ZZM3079.409,660.463L3079.409,654.495L3079.644,651.876L3079.409,651.876C3078.584,653.759,3076.851,654.789,3074.497,654.789C3070.703,654.789,3067.879,651.701,3067.879,646.965C3067.879,642.229,3070.703,639.140,3074.497,639.140C3076.821,639.140,3078.468,640.227,3079.409,641.934L3079.644,641.934L3079.644,639.431L3082.763,639.431L3082.763,660.463L3079.409,660.463ZZM3079.525,646.961C3079.525,643.932,3077.672,642.166,3075.405,642.166C3073.139,642.166,3071.286,643.932,3071.286,646.961C3071.286,649.990,3073.139,651.757,3075.405,651.757C3077.672,651.757,3079.525,649.994,3079.525,646.961ZZM3085.252,648.522L3085.252,639.431L3088.606,639.431L3088.606,648.227C3088.606,650.610,3089.753,651.757,3091.665,651.757C3094.018,651.757,3095.550,650.080,3095.550,647.462L3095.550,639.431L3098.904,639.431L3098.904,654.491L3095.785,654.491L3095.785,651.373L3095.550,651.373C3094.814,653.374,3093.196,654.786,3090.697,654.786C3087.105,654.786,3085.252,652.493,3085.252,648.522ZZM3100.945,650.285C3100.945,647.462,3102.917,645.815,3106.417,645.609L3110.563,645.344L3110.563,644.167C3110.563,642.756,3109.532,641.904,3107.710,641.904C3106.032,641.904,3105.032,642.756,3104.766,643.962L3101.412,643.962C3101.767,640.903,3104.296,639.136,3107.706,639.136C3111.561,639.136,3113.914,640.784,3113.914,643.962L3113.914,654.491L3110.795,654.491L3110.795,651.697L3110.560,651.697C3109.854,653.550,3108.382,654.786,3105.559,654.786C3102.857,654.786,3100.945,652.963,3100.945,650.285ZZM3110.566,648.433L3110.566,647.637L3107.183,647.873C3105.360,647.989,3104.534,648.668,3104.534,650.020C3104.534,651.167,3105.476,651.992,3106.798,651.992C3109.184,651.992,3110.566,650.464,3110.566,648.433ZZM3116.416,654.495L3116.416,639.431L3119.535,639.431L3119.535,642.315L3119.770,642.315C3120.211,640.343,3121.712,639.431,3123.946,639.431L3125.477,639.431L3125.477,642.461L3123.565,642.461C3121.387,642.461,3119.770,643.872,3119.770,646.550L3119.770,654.491L3116.416,654.495ZL3116.416,654.495ZZM3140.822,647.581L3129.378,647.581C3129.554,650.345,3131.496,651.906,3133.644,651.906C3135.466,651.906,3136.613,651.170,3137.263,649.934L3140.587,649.934C3139.676,652.993,3136.998,654.786,3133.614,654.786C3129.173,654.786,3126.054,651.462,3126.054,646.961C3126.054,642.461,3129.259,639.136,3133.644,639.136C3138.055,639.136,3140.938,642.166,3140.938,645.930C3140.942,646.670,3140.882,647.051,3140.822,647.581ZZM3137.617,645.258C3137.501,643.170,3135.765,641.758,3133.647,641.758C3131.645,641.758,3129.971,643.024,3129.557,645.258L3137.617,645.258ZZ">
        </path>
      </g>
    </g>
  </g>
</svg>