<!-- Shape: location_on -->
<svg xmlns:xlink="http://www.w3.org/1999/xlink" fill="none" width="12" xmlns="http://www.w3.org/2000/svg" style="-webkit-print-color-adjust:exact" id="screenshot-eb6635ed-9e52-806d-8002-f329e5ca4bcc" version="1.1" viewBox="3238 898.25 12 12" height="12">
  <g id="shape-eb6635ed-9e52-806d-8002-f329e5ca4bcc" style="fill:#000000" rx="0" ry="0">
    <g id="shape-eb6635ed-9e52-806d-8002-f329e5cbc450" style="fill:#000000" rx="0" ry="0">
      <g id="shape-eb6635ed-9e52-806d-8002-f329e5cbc451" style="fill:#000000" rx="0" ry="0">
        <g id="shape-eb6635ed-9e52-806d-8002-f329e5cdffb5">
          <g class="fills" id="fills-eb6635ed-9e52-806d-8002-f329e5cdffb5">
            <path rx="0" ry="0" d="M3244.000,909.216C3243.728,909.218,3243.471,909.090,3243.308,908.871L3240.778,905.500C3239.616,903.862,3239.869,901.613,3241.366,900.275C3242.863,898.936,3245.126,898.935,3246.624,900.271C3248.123,901.608,3248.379,903.856,3247.220,905.495L3244.693,908.870C3244.530,909.089,3244.273,909.218,3244.000,909.216ZZM3243.996,899.783C3243.151,899.780,3242.335,900.092,3241.707,900.658C3240.403,901.822,3240.178,903.777,3241.182,905.207L3243.708,908.571C3243.776,908.663,3243.885,908.717,3244.000,908.717L3244.000,908.717C3244.115,908.717,3244.223,908.663,3244.293,908.571L3246.815,905.204C3247.515,904.213,3247.641,902.927,3247.146,901.819C3246.652,900.712,3245.610,899.947,3244.405,899.807C3244.269,899.791,3244.133,899.783,3243.996,899.783ZZ">
            </path>
          </g>
        </g>
        <g id="shape-eb6635ed-9e52-806d-8002-f329e5ceac92">
          <g class="fills" id="fills-eb6635ed-9e52-806d-8002-f329e5ceac92">
            <path rx="0" ry="0" d="M3244.000,904.500C3243.310,904.500,3242.750,903.940,3242.750,903.250C3242.750,902.560,3243.310,902.000,3244.000,902.000C3244.690,902.000,3245.250,902.560,3245.250,903.250C3245.250,903.940,3244.690,904.500,3244.000,904.500ZZM3244.000,902.500C3243.586,902.500,3243.250,902.836,3243.250,903.250C3243.250,903.664,3243.586,904.000,3244.000,904.000C3244.414,904.000,3244.750,903.664,3244.750,903.250C3244.750,902.836,3244.414,902.500,3244.000,902.500ZZ">
            </path>
          </g>
        </g>
      </g>
    </g>
  </g>
</svg>