<!-- Shape: face_smart_clever_glasses_person -->
<svg xmlns:xlink="http://www.w3.org/1999/xlink" fill="none" width="68.37" xmlns="http://www.w3.org/2000/svg" style="-webkit-print-color-adjust:exact" id="screenshot-73bd5e87-73d9-80b6-8002-f39551fb96a2" version="1.1" viewBox="-262 637 68.37 64.447" height="64.447">
  <g id="shape-73bd5e87-73d9-80b6-8002-f39551fb96a2" style="fill:#000000" height="64.447334mm" width="68.369743mm" rx="0" ry="0">
    <g id="shape-73bd5e87-73d9-80b6-8002-f39551fd7076">
      <g class="fills" id="fills-73bd5e87-73d9-80b6-8002-f39551fd7076">
        <path color="#000" overflow="visible" rx="0" ry="0" style="fill:#ffffff;fill-opacity:0" d="M-202.537,677.013C-207.875,692.699,-225.536,702.413,-238.581,697.919C-251.626,693.424,-255.115,676.423,-249.777,660.738C-244.439,645.053,-229.537,635.981,-216.491,640.475C-202.283,643.344,-193.668,664.616,-202.537,677.013ZZ">
        </path>
      </g>
    </g>
    <g id="shape-73bd5e87-73d9-80b6-8002-f3955201781d">
      <g class="fills" id="fills-73bd5e87-73d9-80b6-8002-f3955201781d">
        <path rx="0" ry="0" style="fill:#1F2421;fill-opacity:1" d="M-231.067,701.433C-237.547,700.432,-242.142,698.622,-246.755,694.765C-250.947,691.165,-254.231,686.757,-255.043,681.305C-255.244,679.890,-255.557,678.761,-255.798,678.585C-256.092,678.370,-257.443,678.167,-257.666,678.305C-258.743,678.536,-259.670,677.758,-260.957,677.756C-263.358,676.182,-261.088,674.667,-259.399,674.590C-253.974,674.863,-256.297,672.868,-254.974,668.388C-254.362,666.479,-254.448,665.741,-255.328,665.340C-256.061,665.006,-256.157,663.503,-255.446,663.503C-253.862,663.033,-253.356,662.199,-253.002,660.874C-251.734,656.478,-249.547,652.992,-246.924,649.890C-240.401,642.176,-229.300,633.789,-216.722,638.240C-216.678,638.311,-216.402,638.414,-216.109,638.469C-211.416,640.631,-205.434,643.722,-202.745,647.632C-199.746,651.284,-199.612,653.070,-198.540,656.063C-197.999,657.970,-197.315,659.694,-197.153,661.629C-197.099,662.331,-196.977,663.013,-196.880,663.144C-196.698,663.394,-195.654,663.683,-194.970,663.673C-191.525,665.554,-195.703,666.106,-196.625,666.846C-196.893,667.674,-196.833,668.570,-197.076,669.408C-199.556,683.488,-211.915,698.867,-227.310,701.210C-228.420,701.361,-230.627,701.492,-231.067,701.433ZZM-218.968,693.894C-218.638,693.654,-218.263,693.421,-218.135,693.376C-217.704,693.226,-215.918,691.910,-215.480,691.419C-213.210,688.932,-210.151,686.427,-208.395,683.453C-208.176,683.073,-207.732,682.300,-207.409,681.737C-207.086,681.173,-206.707,680.577,-206.566,680.412C-204.435,676.709,-201.280,671.771,-201.488,667.279C-201.530,666.777,-201.574,666.731,-202.059,666.684C-203.997,667.313,-206.715,666.471,-208.299,667.323C-208.504,667.458,-208.673,667.632,-208.673,667.710C-210.460,670.835,-215.071,674.114,-219.118,673.430C-220.949,673.168,-222.567,672.514,-224.056,671.516C-225.313,670.661,-227.317,668.438,-227.799,667.363C-228.230,666.401,-228.428,666.242,-229.073,666.347C-229.669,666.444,-229.612,666.351,-230.428,668.538C-230.829,669.612,-230.924,669.749,-232.377,671.333C-235.067,674.151,-236.630,675.275,-240.088,674.859C-241.209,674.723,-242.131,674.492,-243.282,674.061C-244.886,673.461,-245.174,673.274,-246.915,671.694C-247.665,671.014,-248.563,669.456,-249.032,668.021C-249.205,667.489,-249.428,667.027,-249.528,666.994C-249.750,666.919,-250.111,667.748,-250.462,669.139C-250.790,670.439,-251.125,673.581,-250.993,674.110L-250.895,674.501L-249.360,674.457C-246.263,673.847,-245.771,677.441,-248.652,677.622C-249.024,677.631,-249.667,677.726,-250.080,677.835L-250.832,678.032L-250.804,679.222C-250.777,680.383,-250.676,680.866,-249.912,683.493C-249.490,684.944,-247.702,688.344,-246.869,689.279C-245.864,690.408,-243.469,692.668,-242.716,693.199C-238.995,696.017,-236.406,696.517,-232.345,697.590C-227.586,698.634,-222.488,696.344,-218.968,693.894ZZM-227.535,692.355C-229.695,692.155,-230.727,691.911,-232.570,691.162C-234.504,690.377,-235.532,689.703,-236.819,688.378C-237.986,687.175,-238.574,685.963,-238.749,684.400C-239.086,681.453,-237.122,682.304,-235.050,681.791C-234.554,681.666,-233.371,681.451,-232.420,681.314C-226.410,680.311,-219.850,678.752,-214.881,678.638C-212.821,678.272,-212.492,678.077,-210.986,679.469C-210.474,679.910,-210.289,680.470,-210.296,681.544C-210.301,682.094,-210.456,682.486,-211.102,683.573C-212.199,685.418,-214.692,687.859,-215.724,688.099C-219.996,690.509,-223.283,692.737,-227.535,692.355ZZM-217.841,685.064C-215.918,683.624,-215.134,682.844,-214.601,681.844C-214.316,681.310,-214.083,680.718,-214.083,680.529C-214.083,680.233,-214.160,680.186,-214.647,680.188C-214.957,680.188,-215.887,680.369,-216.714,680.589C-222.446,681.950,-228.895,682.570,-233.776,684.171C-234.130,684.295,-234.493,684.389,-234.584,684.378C-234.986,684.332,-235.125,684.415,-235.125,684.701C-235.125,685.573,-233.740,687.240,-232.495,687.868C-231.800,688.219,-229.848,688.855,-229.189,688.947C-223.977,689.330,-221.463,687.785,-217.841,685.064ZZM-233.268,667.602C-232.224,664.559,-232.540,662.082,-234.573,659.720C-236.301,658.172,-238.138,657.264,-240.120,658.217C-241.348,658.803,-243.492,660.518,-244.433,661.587C-246.068,663.446,-246.238,666.939,-245.736,668.463C-245.133,670.113,-245.017,670.274,-243.930,670.984C-239.630,673.552,-235.571,672.185,-233.268,667.602ZZM-239.160,666.421C-239.942,665.577,-240.218,664.862,-240.246,663.611C-240.277,662.233,-240.105,661.909,-239.270,661.784C-237.455,661.692,-236.248,662.910,-236.275,664.287C-236.311,666.068,-236.813,666.871,-238.003,667.049C-238.452,667.116,-238.578,667.049,-239.160,666.421ZZM-216.864,670.037C-215.844,669.605,-213.891,668.232,-213.204,667.465C-210.814,664.392,-212.434,661.436,-214.406,658.842C-216.486,655.370,-222.342,655.923,-224.763,661.248C-225.218,661.988,-225.277,662.212,-225.328,663.382C-225.412,665.300,-224.719,667.207,-223.599,668.142C-222.369,669.290,-220.172,670.439,-218.595,670.374C-217.974,670.329,-217.194,670.177,-216.864,670.037ZZM-223.150,667.223C-223.984,666.105,-224.210,665.140,-224.067,663.309C-223.964,661.999,-223.956,661.979,-223.422,661.616C-222.444,660.958,-220.685,661.363,-220.369,662.827C-220.082,664.445,-220.327,666.147,-220.945,666.839C-221.866,667.447,-222.461,668.136,-223.150,667.223ZZM-228.869,663.435C-228.351,661.572,-227.956,659.747,-226.853,658.589C-222.556,652.959,-215.255,652.496,-210.531,659.550C-209.646,660.306,-208.823,661.705,-208.823,662.455C-208.823,663.486,-207.939,663.790,-205.720,663.523C-204.096,663.272,-201.390,663.571,-201.511,662.092C-201.828,659.370,-202.647,656.386,-203.504,654.293C-206.782,648.657,-209.258,644.506,-215.133,642.375C-218.915,640.814,-222.242,640.945,-225.776,641.192C-232.247,641.727,-238.023,647.012,-242.170,650.917C-243.304,651.982,-244.287,653.423,-245.682,656.063C-247.438,659.387,-247.869,660.497,-247.406,660.497C-243.325,655.309,-238.917,654.235,-234.316,656.963C-234.012,657.169,-233.571,657.437,-233.335,657.560C-231.920,658.922,-230.331,660.954,-229.937,662.863C-229.884,663.131,-229.728,663.417,-229.590,663.497C-229.258,663.691,-229.231,663.689,-228.869,663.435ZZ">
        </path>
      </g>
    </g>
  </g>
</svg>