<!-- Shape: square_chev_left -->
<svg xmlns:xlink="http://www.w3.org/1999/xlink" fill="none" width="49" xmlns="http://www.w3.org/2000/svg" style="-webkit-print-color-adjust:exact" id="screenshot-eb6635ed-9e52-806d-8002-f3281d74e1cb" version="1.1" viewBox="2190.5 619.5 49 49" height="49">
  <g id="shape-eb6635ed-9e52-806d-8002-f3281d74e1cb" style="fill:#000000" rx="0" ry="0">
    <g id="shape-eb6635ed-9e52-806d-8002-f3281d74e1d2" style="fill:#000000" rx="0" ry="0">
      <g id="shape-eb6635ed-9e52-806d-8002-f3281d74e1d3" style="fill:#000000" rx="0" ry="0">
        <g id="shape-eb6635ed-9e52-806d-8002-f3281d74e1d4">
          <g class="fills" id="fills-eb6635ed-9e52-806d-8002-f3281d74e1d4">
            <path rx="0" ry="0" d="M2213.420,644.000L2218.700,649.300C2219.080,649.688,2219.077,650.309,2218.693,650.693C2218.309,651.077,2217.688,651.080,2217.300,650.700C2217.040,650.460,2216.800,650.220,2216.540,649.960C2214.800,648.220,2213.040,646.460,2211.300,644.700C2211.113,644.515,2211.008,644.263,2211.008,644.000C2211.008,643.737,2211.113,643.485,2211.300,643.300L2217.300,637.300C2217.688,636.920,2218.309,636.923,2218.693,637.307C2219.077,637.691,2219.080,638.312,2218.700,638.700Z">
            </path>
          </g>
          <g id="strokes-eb6635ed-9e52-806d-8002-f3281d74e1d4" class="strokes">
            <g class="stroke-shape">
              <path rx="0" ry="0" style="fill:none;fill-opacity:none;stroke-width:1;stroke:#000000;stroke-opacity:1;stroke-dasharray:" d="M2213.420,644.000L2218.700,649.300C2219.080,649.688,2219.077,650.309,2218.693,650.693C2218.309,651.077,2217.688,651.080,2217.300,650.700C2217.040,650.460,2216.800,650.220,2216.540,649.960C2214.800,648.220,2213.040,646.460,2211.300,644.700C2211.113,644.515,2211.008,644.263,2211.008,644.000C2211.008,643.737,2211.113,643.485,2211.300,643.300L2217.300,637.300C2217.688,636.920,2218.309,636.923,2218.693,637.307C2219.077,637.691,2219.080,638.312,2218.700,638.700Z">
              </path>
            </g>
          </g>
        </g>
        <g id="shape-eb6635ed-9e52-806d-8002-f3281d74e1d5">
          <g class="fills" id="fills-eb6635ed-9e52-806d-8002-f3281d74e1d5">
            <path rx="0" ry="0" d="M2227.874,661.878L2202.124,661.878C2199.363,661.878,2197.124,659.639,2197.124,656.878L2197.124,631.132C2197.124,628.371,2199.363,626.132,2202.124,626.132L2227.874,626.132C2230.635,626.132,2232.874,628.371,2232.874,631.132L2232.874,656.878C2232.874,659.639,2230.635,661.878,2227.874,661.878ZZM2202.124,628.132C2200.467,628.132,2199.124,629.475,2199.124,631.132L2199.124,656.878C2199.124,658.535,2200.467,659.878,2202.124,659.878L2227.874,659.878C2229.531,659.878,2230.874,658.535,2230.874,656.878L2230.874,631.132C2230.874,629.475,2229.531,628.132,2227.874,628.132Z">
            </path>
          </g>
          <g id="strokes-eb6635ed-9e52-806d-8002-f3281d74e1d5" class="strokes">
            <g class="stroke-shape">
              <path rx="0" ry="0" style="fill:none;fill-opacity:none;stroke-width:1;stroke:#000000;stroke-opacity:1;stroke-dasharray:" d="M2227.874,661.878L2202.124,661.878C2199.363,661.878,2197.124,659.639,2197.124,656.878L2197.124,631.132C2197.124,628.371,2199.363,626.132,2202.124,626.132L2227.874,626.132C2230.635,626.132,2232.874,628.371,2232.874,631.132L2232.874,656.878C2232.874,659.639,2230.635,661.878,2227.874,661.878ZZM2202.124,628.132C2200.467,628.132,2199.124,629.475,2199.124,631.132L2199.124,656.878C2199.124,658.535,2200.467,659.878,2202.124,659.878L2227.874,659.878C2229.531,659.878,2230.874,658.535,2230.874,656.878L2230.874,631.132C2230.874,629.475,2229.531,628.132,2227.874,628.132Z">
              </path>
            </g>
          </g>
        </g>
      </g>
    </g>
  </g>
</svg>