<!-- Shape: Company=Notion -->
<svg xmlns:xlink="http://www.w3.org/1999/xlink" fill="none" width="129" xmlns="http://www.w3.org/2000/svg" style="-webkit-print-color-adjust:exact" id="screenshot-eb6635ed-9e52-806d-8002-f3281d74e1c5" version="1.1" viewBox="2467.048 620.5 129 48" height="48">
  <g id="shape-eb6635ed-9e52-806d-8002-f3281d74e1c5" style="fill:#000000" width="129" height="48" rx="0" ry="0">
    <g id="shape-eb6635ed-9e52-806d-8002-f3281d74e1db">
      <g class="fills" id="fills-eb6635ed-9e52-806d-8002-f3281d74e1db">
        <path rx="0" ry="0" style="fill:#000000" d="M2511.984,655.275L2511.984,640.720L2512.243,640.720L2522.838,655.275L2526.172,655.275L2526.172,633.901L2522.467,633.901L2522.467,648.419L2522.208,648.419L2511.613,633.901L2508.279,633.901L2508.279,655.275L2511.984,655.275ZZM2536.655,655.605C2541.545,655.605,2544.546,652.452,2544.546,647.173C2544.546,641.930,2541.545,638.740,2536.655,638.740C2531.802,638.740,2528.765,641.930,2528.765,647.173C2528.802,652.452,2531.765,655.605,2536.655,655.605ZZM2536.655,652.525C2534.062,652.525,2532.580,650.582,2532.580,647.173C2532.580,643.800,2534.062,641.820,2536.655,641.820C2539.248,641.820,2540.730,643.800,2540.730,647.173C2540.730,650.582,2539.248,652.525,2536.655,652.525ZZM2547.917,635.110L2547.917,639.180L2545.323,639.180L2545.323,642.113L2547.917,642.113L2547.917,650.949C2547.917,654.102,2549.398,655.348,2553.177,655.348C2553.881,655.348,2554.585,655.275,2555.140,655.165L2555.140,652.305C2554.696,652.342,2554.399,652.379,2553.881,652.379C2552.325,652.379,2551.621,651.682,2551.621,650.069L2551.621,642.113L2555.140,642.113L2555.140,639.180L2551.621,639.180L2551.621,635.110L2547.917,635.110ZZM2557.363,655.275L2561.067,655.275L2561.067,639.070L2557.363,639.070L2557.363,655.275ZZM2559.215,636.394C2560.438,636.394,2561.438,635.404,2561.438,634.194C2561.438,632.947,2560.438,631.957,2559.215,631.957C2557.993,631.957,2556.992,632.947,2556.992,634.194C2556.992,635.404,2557.993,636.394,2559.215,636.394ZZM2571.217,655.605C2576.107,655.605,2579.108,652.452,2579.108,647.173C2579.108,641.930,2576.107,638.740,2571.217,638.740C2566.365,638.740,2563.327,641.930,2563.327,647.173C2563.327,652.452,2566.291,655.605,2571.217,655.605ZZM2571.217,652.525C2568.624,652.525,2567.143,650.582,2567.143,647.173C2567.143,643.800,2568.624,641.820,2571.217,641.820C2573.774,641.820,2575.292,643.800,2575.292,647.173C2575.255,650.582,2573.774,652.525,2571.217,652.525ZZM2581.293,655.275L2584.998,655.275L2584.998,645.853C2584.998,643.470,2586.406,641.966,2588.591,641.966C2590.851,641.966,2591.888,643.213,2591.888,645.669L2591.888,655.275L2595.593,655.275L2595.593,644.789C2595.593,640.903,2593.592,638.740,2589.962,638.740C2587.517,638.740,2585.887,639.840,2585.109,641.673L2584.850,641.673L2584.850,639.070L2581.256,639.070C2581.293,639.070,2581.293,655.275,2581.293,655.275ZZ">
        </path>
      </g>
    </g>
    <g id="shape-eb6635ed-9e52-806d-8002-f3281d74e1dc">
      <g class="fills" id="fills-eb6635ed-9e52-806d-8002-f3281d74e1dc">
        <path fill-rule="evenodd" clip-rule="evenodd" rx="0" ry="0" style="fill:#000000" d="M2472.760,632.533C2473.838,633.402,2474.228,633.334,2476.247,633.196L2495.264,632.052C2495.677,632.052,2495.333,631.640,2495.195,631.594L2492.030,629.328C2491.433,628.870,2490.607,628.321,2489.070,628.458L2470.673,629.809C2470.007,629.877,2469.870,630.221,2470.145,630.473L2472.760,632.533ZZM2473.907,636.950L2473.907,656.910C2473.907,657.986,2474.435,658.375,2475.650,658.306L2496.549,657.093C2497.765,657.024,2497.902,656.292,2497.902,655.422L2497.902,635.600C2497.902,634.730,2497.558,634.249,2496.824,634.318L2474.985,635.600C2474.182,635.668,2473.907,636.080,2473.907,636.950ZZM2494.530,638.026C2494.668,638.621,2494.530,639.239,2493.934,639.308L2492.924,639.514L2492.924,654.255C2492.053,654.713,2491.250,654.987,2490.561,654.987C2489.483,654.987,2489.208,654.644,2488.405,653.637L2481.821,643.314L2481.821,653.293L2483.909,653.751C2483.909,653.751,2483.909,654.964,2482.234,654.964L2477.600,655.239C2477.463,654.964,2477.600,654.300,2478.059,654.163L2479.275,653.820L2479.275,640.635L2477.600,640.498C2477.463,639.903,2477.807,639.033,2478.747,638.965L2483.725,638.621L2490.584,649.059L2490.584,639.834L2488.841,639.628C2488.703,638.896,2489.254,638.347,2489.919,638.278L2494.530,638.026ZZM2469.136,627.978L2488.290,626.581C2490.630,626.375,2491.250,626.513,2492.718,627.588L2498.820,631.869C2499.829,632.601,2500.173,632.807,2500.173,633.608L2500.173,657.116C2500.173,658.581,2499.646,659.451,2497.765,659.588L2475.536,660.938C2474.114,661.007,2473.448,660.801,2472.714,659.863L2468.195,654.026C2467.392,652.950,2467.048,652.149,2467.048,651.210L2467.048,630.312C2467.048,629.099,2467.599,628.115,2469.136,627.978ZZ">
        </path>
      </g>
    </g>
  </g>
</svg>