<!-- Shape: Company=Pipedrive -->
<svg xmlns:xlink="http://www.w3.org/1999/xlink" fill="none" width="162" xmlns="http://www.w3.org/2000/svg" style="-webkit-print-color-adjust:exact" id="screenshot-eb6635ed-9e52-806d-8002-f3281d74e1c6" version="1.1" viewBox="2623.096 620.5 162 48" height="48">
  <g id="shape-eb6635ed-9e52-806d-8002-f3281d74e1c6" style="fill:#000000" width="162" height="48" rx="0" ry="0">
    <g id="shape-eb6635ed-9e52-806d-8002-f3281d74e1de">
      <g class="fills" id="fills-eb6635ed-9e52-806d-8002-f3281d74e1de">
        <path fill-rule="evenodd" clip-rule="evenodd" rx="0" ry="0" style="fill:#192435" d="M2649.615,631.501L2625.576,631.501C2624.206,631.501,2623.096,632.611,2623.096,633.981L2623.096,658.020C2623.096,659.390,2624.206,660.500,2625.576,660.500L2649.615,660.500C2650.985,660.500,2652.095,659.389,2652.095,658.020L2652.095,633.981C2652.095,632.611,2650.985,631.501,2649.615,631.501ZZM2638.334,647.478C2636.166,647.478,2635.181,645.383,2635.181,643.441C2635.181,640.383,2636.837,639.294,2638.387,639.294C2640.289,639.294,2641.567,640.948,2641.567,643.412C2641.567,646.222,2639.941,647.478,2638.334,647.478ZZM2645.652,643.358C2645.652,638.776,2643.038,635.697,2639.151,635.697C2636.889,635.697,2635.580,636.723,2634.949,637.430C2634.873,636.820,2634.475,636.028,2632.919,636.028L2629.540,636.028L2629.540,639.597L2630.925,639.597C2631.160,639.597,2631.236,639.672,2631.236,639.909L2631.236,656.206L2635.262,656.206L2635.262,650.090C2635.262,649.925,2635.259,649.770,2635.255,649.632C2635.883,650.214,2637.086,651.018,2638.962,651.018C2642.898,651.018,2645.652,647.869,2645.652,643.358ZZ">
        </path>
      </g>
    </g>
    <g id="shape-eb6635ed-9e52-806d-8002-f3281d74e1df">
      <g class="fills" id="fills-eb6635ed-9e52-806d-8002-f3281d74e1df">
        <path fill-rule="evenodd" clip-rule="evenodd" rx="0" ry="0" style="fill:#192435" d="M2662.736,639.309C2663.449,638.511,2664.928,637.353,2667.483,637.353C2671.873,637.353,2674.826,640.827,2674.826,645.999C2674.826,651.090,2671.715,654.644,2667.269,654.644C2665.150,654.644,2663.792,653.736,2663.082,653.080C2663.087,653.236,2663.090,653.410,2663.090,653.596L2663.090,660.499L2658.542,660.499L2658.542,642.107C2658.542,641.840,2658.456,641.755,2658.191,641.755L2656.627,641.755L2656.627,637.727L2660.443,637.727C2662.201,637.727,2662.650,638.621,2662.736,639.309ZZM2666.620,641.413C2664.869,641.413,2662.998,642.642,2662.998,646.092C2662.998,648.284,2664.111,650.648,2666.559,650.648C2668.375,650.648,2670.212,649.232,2670.212,646.060C2670.212,643.280,2668.768,641.413,2666.620,641.413ZZ">
        </path>
      </g>
    </g>
    <g id="shape-eb6635ed-9e52-806d-8002-f3281d74e1e0">
      <g class="fills" id="fills-eb6635ed-9e52-806d-8002-f3281d74e1e0">
        <path rx="0" ry="0" style="fill:#192435" d="M2680.934,649.923L2680.934,640.176C2680.934,638.530,2680.147,637.728,2678.534,637.728L2674.469,637.728L2674.469,641.755L2676.035,641.755C2676.298,641.755,2676.384,641.842,2676.384,642.107L2676.384,651.820C2676.384,653.492,2677.146,654.268,2678.779,654.268L2682.849,654.268L2682.849,650.276L2681.283,650.276C2681.031,650.276,2680.934,650.175,2680.934,649.923ZZ">
        </path>
      </g>
    </g>
    <g id="shape-eb6635ed-9e52-806d-8002-f3281d74e1e1">
      <g class="fills" id="fills-eb6635ed-9e52-806d-8002-f3281d74e1e1">
        <path fill-rule="evenodd" clip-rule="evenodd" rx="0" ry="0" style="fill:#192435" d="M2688.067,639.309C2688.784,638.511,2690.259,637.353,2692.817,637.353C2697.206,637.353,2700.157,640.827,2700.157,645.999C2700.157,651.090,2697.050,654.644,2692.602,654.644C2690.484,654.644,2689.121,653.736,2688.415,653.080C2688.420,653.236,2688.425,653.410,2688.425,653.596L2688.425,660.499L2683.873,660.499L2683.873,642.107C2683.873,641.840,2683.788,641.755,2683.524,641.755L2681.960,641.755L2681.960,637.727L2685.778,637.727C2687.535,637.727,2687.983,638.621,2688.067,639.309ZZM2688.329,646.092C2688.329,648.284,2689.447,650.648,2691.889,650.648C2693.710,650.648,2695.545,649.232,2695.545,646.060C2695.545,643.280,2694.101,641.413,2691.953,641.413C2690.201,641.413,2688.329,642.642,2688.329,646.092ZZ">
        </path>
      </g>
    </g>
    <g id="shape-eb6635ed-9e52-806d-8002-f3281d74e1e2">
      <g class="fills" id="fills-eb6635ed-9e52-806d-8002-f3281d74e1e2">
        <path fill-rule="evenodd" clip-rule="evenodd" rx="0" ry="0" style="fill:#192435" d="M2700.389,646.000C2700.389,640.910,2703.816,637.354,2708.717,637.354C2713.088,637.354,2716.025,640.515,2716.025,645.220C2716.025,645.697,2715.936,646.674,2715.927,646.714L2715.902,647.015L2705.115,647.015C2705.510,649.215,2707.178,650.618,2709.457,650.618C2711.751,650.618,2713.506,649.060,2713.642,648.940C2713.646,648.936,2713.649,648.933,2713.650,648.933L2713.944,648.652L2715.926,651.967L2715.743,652.150C2715.635,652.255,2713.186,654.644,2709.182,654.644C2704.086,654.644,2700.389,651.008,2700.389,646.000ZZM2708.717,641.069C2707.012,641.069,2705.778,641.989,2705.285,643.612L2711.327,643.612C2711.141,642.120,2710.087,641.069,2708.717,641.069ZZ">
        </path>
      </g>
    </g>
    <g id="shape-eb6635ed-9e52-806d-8002-f3281d74e1e3">
      <g class="fills" id="fills-eb6635ed-9e52-806d-8002-f3281d74e1e3">
        <path fill-rule="evenodd" clip-rule="evenodd" rx="0" ry="0" style="fill:#192435" d="M2732.570,633.949L2732.570,649.922C2732.570,650.175,2732.667,650.276,2732.919,650.276L2734.451,650.276L2734.451,654.268L2730.510,654.268C2728.809,654.268,2728.350,653.365,2728.258,652.650C2727.551,653.470,2726.105,654.644,2723.596,654.644C2719.205,654.644,2716.254,651.171,2716.254,646.000C2716.254,640.909,2719.334,637.354,2723.748,637.354C2726.006,637.354,2727.317,638.157,2727.988,638.768L2727.988,635.881C2727.988,635.614,2727.902,635.529,2727.639,635.529L2726.073,635.529L2726.073,631.500L2730.138,631.500C2731.773,631.500,2732.570,632.302,2732.570,633.949ZZM2720.895,646.000C2720.895,648.822,2722.295,650.648,2724.458,650.648C2726.209,650.648,2728.082,649.421,2728.082,645.969C2728.082,643.700,2726.979,641.413,2724.520,641.413C2722.352,641.413,2720.895,643.255,2720.895,646.000ZZ">
        </path>
      </g>
    </g>
    <g id="shape-eb6635ed-9e52-806d-8002-f3281d74e1e4">
      <g class="fills" id="fills-eb6635ed-9e52-806d-8002-f3281d74e1e4">
        <path rx="0" ry="0" style="fill:#192435" d="M2744.573,637.509C2742.680,637.509,2740.938,638.611,2739.904,640.366L2739.904,639.988C2739.904,638.489,2739.083,637.727,2737.472,637.727L2733.561,637.727L2733.561,641.755L2735.126,641.755C2735.389,641.755,2735.476,641.840,2735.476,642.107L2735.476,654.268L2740.025,654.268L2740.025,647.649C2740.025,646.778,2740.136,645.939,2740.350,645.162C2741.035,642.879,2742.855,642.066,2744.327,642.066C2744.848,642.066,2745.228,642.122,2745.234,642.124L2745.614,642.182L2745.614,637.622L2745.337,637.575C2745.323,637.572,2744.937,637.509,2744.573,637.509ZZ">
        </path>
      </g>
    </g>
    <g id="shape-eb6635ed-9e52-806d-8002-f3281d74e1e5">
      <g class="fills" id="fills-eb6635ed-9e52-806d-8002-f3281d74e1e5">
        <path rx="0" ry="0" style="fill:#192435" d="M2752.088,649.923L2752.088,640.176C2752.088,638.530,2751.305,637.728,2749.691,637.728L2746.014,637.728L2746.014,641.755L2747.189,641.755C2747.455,641.755,2747.538,641.842,2747.538,642.107L2747.538,651.820C2747.538,653.492,2748.302,654.268,2749.939,654.268L2754.005,654.268L2754.005,650.276L2752.437,650.276C2752.186,650.276,2752.088,650.175,2752.088,649.923ZZ">
        </path>
      </g>
    </g>
    <g id="shape-eb6635ed-9e52-806d-8002-f3281d74e1e6">
      <g class="fills" id="fills-eb6635ed-9e52-806d-8002-f3281d74e1e6">
        <path rx="0" ry="0" style="fill:#192435" d="M2769.261,637.728L2766.834,637.728C2765.416,637.728,2764.655,638.224,2764.205,639.440L2761.240,647.792C2761.137,648.102,2761.041,648.448,2760.959,648.782C2760.874,648.448,2760.771,648.097,2760.659,647.787L2757.693,639.439C2757.238,638.208,2756.503,637.728,2755.067,637.728L2752.485,637.728L2752.485,641.755L2753.154,641.755C2753.511,641.755,2753.625,641.877,2753.709,642.101L2758.299,654.268L2763.415,654.268L2768.005,642.101C2768.089,641.877,2768.207,641.755,2768.562,641.755L2769.261,641.755L2769.261,637.728ZZ">
        </path>
      </g>
    </g>
    <g id="shape-eb6635ed-9e52-806d-8002-f3281d74e1e7">
      <g class="fills" id="fills-eb6635ed-9e52-806d-8002-f3281d74e1e7">
        <path fill-rule="evenodd" clip-rule="evenodd" rx="0" ry="0" style="fill:#192435" d="M2768.768,646.000C2768.768,640.910,2772.195,637.354,2777.094,637.354C2781.467,637.354,2784.406,640.515,2784.406,645.220C2784.406,645.697,2784.314,646.674,2784.309,646.714L2784.284,647.015L2773.493,647.015C2773.888,649.215,2775.556,650.618,2777.837,650.618C2780.203,650.618,2782.011,648.948,2782.027,648.933L2782.328,648.652L2784.306,651.967L2784.121,652.150C2784.018,652.251,2781.568,654.644,2777.559,654.644C2772.463,654.644,2768.768,651.008,2768.768,646.000ZZM2777.094,641.069C2775.390,641.069,2774.161,641.989,2773.663,643.612L2779.705,643.612C2779.519,642.120,2778.467,641.069,2777.094,641.069ZZ">
        </path>
      </g>
    </g>
    <g id="shape-eb6635ed-9e52-806d-8002-f3281d74e1e8">
      <g class="fills" id="fills-eb6635ed-9e52-806d-8002-f3281d74e1e8">
        <path rx="0" ry="0" style="fill:#192435" d="M2680.623,631.501L2676.568,631.501L2676.568,635.808L2680.623,635.808L2680.623,631.501ZZ">
        </path>
      </g>
    </g>
    <g id="shape-eb6635ed-9e52-806d-8002-f3281d74e1e9">
      <g class="fills" id="fills-eb6635ed-9e52-806d-8002-f3281d74e1e9">
        <path rx="0" ry="0" style="fill:#192435" d="M2751.780,631.501L2747.723,631.501L2747.723,635.808L2751.780,635.808L2751.780,631.501ZZ">
        </path>
      </g>
    </g>
  </g>
</svg>