<!-- Shape: Company=Rippling -->
<svg xmlns:xlink="http://www.w3.org/1999/xlink" fill="none" width="170" xmlns="http://www.w3.org/2000/svg" style="-webkit-print-color-adjust:exact" id="screenshot-eb6635ed-9e52-806d-8002-f3281d74e1c7" version="1.1" viewBox="2812.144 620.5 170 48" height="48">
  <g id="shape-eb6635ed-9e52-806d-8002-f3281d74e1c7" style="fill:#000000" width="170" height="48" rx="0" ry="0">
    <g id="shape-eb6635ed-9e52-806d-8002-f3281d756d72">
      <g class="fills" id="fills-eb6635ed-9e52-806d-8002-f3281d756d72">
        <path rx="0" ry="0" style="fill:#000000" d="M2815.981,640.154C2815.981,637.514,2814.644,635.332,2812.144,633.500L2817.955,633.500C2818.979,634.280,2819.809,635.287,2820.380,636.441C2820.950,637.596,2821.246,638.866,2821.244,640.154C2821.246,641.442,2820.950,642.713,2820.380,643.867C2819.809,645.021,2818.979,646.028,2817.955,646.808C2819.841,647.595,2820.915,649.515,2820.915,652.263L2820.915,657.500L2815.653,657.500L2815.653,652.263C2815.653,649.646,2814.404,647.814,2812.145,646.809C2814.645,644.976,2815.983,642.796,2815.981,640.154ZL2815.981,640.154ZZM2827.384,640.154C2827.384,637.514,2826.047,635.332,2823.547,633.500L2829.359,633.500C2830.383,634.280,2831.212,635.287,2831.783,636.441C2832.353,637.596,2832.649,638.867,2832.647,640.154C2832.649,641.442,2832.353,642.712,2831.783,643.867C2831.212,645.021,2830.383,646.028,2829.359,646.808C2831.244,647.595,2832.319,649.515,2832.319,652.263L2832.319,657.500L2827.056,657.500L2827.056,652.263C2827.056,649.646,2825.805,647.814,2823.547,646.809C2826.047,644.976,2827.384,642.796,2827.384,640.154ZL2827.384,640.154ZZM2838.789,640.154C2838.789,637.514,2837.452,635.332,2834.952,633.500L2840.763,633.500C2841.787,634.280,2842.617,635.287,2843.187,636.441C2843.758,637.596,2844.054,638.866,2844.052,640.154C2844.054,641.442,2843.758,642.713,2843.187,643.867C2842.617,645.021,2841.787,646.028,2840.763,646.808C2842.649,647.595,2843.723,649.515,2843.723,652.263L2843.723,657.500L2838.460,657.500L2838.460,652.263C2838.460,649.646,2837.211,647.814,2834.952,646.809C2837.452,644.976,2838.789,642.796,2838.789,640.154ZL2838.789,640.154ZZM2860.080,653.140L2856.091,653.140L2856.091,637.863L2865.893,637.863C2870.608,637.863,2872.932,639.610,2872.932,642.468C2872.932,644.409,2871.792,645.871,2869.665,646.613C2871.857,646.940,2872.844,648.096,2872.844,650.170L2872.844,653.137L2868.809,653.137L2868.809,650.345C2868.809,648.598,2867.932,647.900,2865.629,647.900L2860.083,647.900L2860.080,653.140ZL2860.080,653.140ZZM2865.672,640.089L2860.080,640.089L2860.080,645.676L2865.628,645.676C2867.645,645.676,2868.895,644.563,2868.895,642.817C2868.895,641.093,2867.735,640.089,2865.672,640.089ZL2865.672,640.089ZZM2879.860,637.863L2875.869,637.863L2875.869,653.140L2879.860,653.140L2879.860,637.863ZZM2892.096,648.162L2887.228,648.162L2887.228,653.137L2883.236,653.137L2883.236,637.863L2892.183,637.863C2896.897,637.863,2899.376,639.827,2899.376,642.970C2899.376,646.220,2896.855,648.162,2892.096,648.162ZL2892.096,648.162ZZM2892.008,640.089L2887.228,640.089L2887.228,645.936L2891.964,645.936C2894.025,645.936,2895.297,644.889,2895.297,642.992C2895.297,641.137,2894.025,640.089,2892.008,640.089ZZM2910.604,648.162L2905.736,648.162L2905.736,653.137L2901.744,653.137L2901.744,637.863L2910.691,637.863C2915.405,637.863,2917.884,639.827,2917.884,642.970C2917.884,646.220,2915.361,648.162,2910.604,648.162ZL2910.604,648.162ZZM2910.516,640.089L2905.736,640.089L2905.736,645.936L2910.472,645.936C2912.533,645.936,2913.805,644.889,2913.805,642.992C2913.805,641.137,2912.533,640.089,2910.516,640.089ZL2910.516,640.089ZZM2924.243,637.863L2924.243,650.867L2934.199,650.867L2934.199,653.140L2920.252,653.140L2920.252,637.863L2924.243,637.863ZL2924.243,637.863ZZM2940.687,637.863L2936.696,637.863L2936.696,653.140L2940.687,653.140L2940.687,637.863ZZM2946.696,642.969L2946.696,653.140L2944.064,653.140L2944.064,637.863L2947.049,637.863L2957.925,648.031L2957.925,637.863L2960.557,637.863L2960.557,653.140L2957.575,653.140L2946.696,642.969ZL2946.696,642.969ZZM2973.584,639.653C2969.789,639.653,2967.312,642.053,2967.312,645.631C2967.312,649.164,2969.680,651.347,2973.364,651.347L2973.627,651.347C2974.877,651.347,2976.280,651.085,2977.575,650.671L2977.575,646.547L2971.128,646.547L2971.128,644.365L2981.477,644.365L2981.477,651.543C2979.329,652.657,2976.083,653.530,2973.452,653.530L2973.101,653.530C2967.048,653.530,2963.145,650.343,2963.145,645.717C2963.145,641.135,2967.159,637.471,2973.320,637.471L2973.671,637.471C2976.237,637.471,2979.175,638.278,2981.347,639.543L2980.205,641.397C2978.255,640.329,2975.929,639.653,2973.847,639.653L2973.584,639.653ZL2973.584,639.653ZZ">
        </path>
      </g>
    </g>
  </g>
</svg>